<?xml version="1.0" encoding="UTF-8" standalone="no"?>
<svg
   xmlns:dc="http://purl.org/dc/elements/1.1/"
   xmlns:cc="http://creativecommons.org/ns#"
   xmlns:rdf="http://www.w3.org/1999/02/22-rdf-syntax-ns#"
   xmlns:svg="http://www.w3.org/2000/svg"
   xmlns="http://www.w3.org/2000/svg"
   viewBox="0 0 84.833944 65.463843"
   height="18.475351mm"
   width="23.942024mm"
   version="1.1"
   id="svg3897">
  <metadata
     id="metadata3903">
    <rdf:RDF>
      <cc:Work
         rdf:about="">
        <dc:format>image/svg+xml</dc:format>
        <dc:type
           rdf:resource="http://purl.org/dc/dcmitype/StillImage" />
        <dc:title></dc:title>
      </cc:Work>
    </rdf:RDF>
  </metadata>
  <defs
     id="defs3901" />
  <path
     id="path3907"
     d="m 22.668723,62.22767 c -1.376144,-2.48295 -1.422687,-4.26359 -0.199976,-7.6505 0.876493,-2.42787 1.593624,-4.63006 1.593624,-4.89375 0,-0.26368 -3.516145,-0.47944 -7.813652,-0.47944 l -7.8136503,0 2.8883993,-5.4671 2.888402,-5.46712 -7.1059343,0 -7.1059357,0 0,-5.46711 0,-5.4671 9.7347227,0 c 6.9263283,0 10.2430633,-0.59146 11.4967813,-2.05017 1.538548,-1.7901 0.468317,-2.05016 -8.437242,-2.05016 -5.6096153,0 -9.9665473,-0.46129 -9.6820713,-1.02509 4.475656,-8.87019 3.686386,-8.40929 15.1209623,-8.83006 8.92119,-0.32829 10.833095,-0.80306 11.225531,-2.78755 0.411659,-2.08169 -0.733495,-2.39186 -8.831111,-2.39186 -5.117258,0 -9.304105,-0.27858 -9.304105,-0.61907 0,-0.3405 0.739185,-2.18564 1.642632,-4.10033 C 14.544532,0.13606 15.093786,0 27.019334,0 c 12.739281,0 16.859107,1.53646 16.859107,6.28745 0,1.09552 -3.503198,8.21613 -7.784885,15.8236 -4.281686,7.60744 -7.784884,14.04777 -7.784884,14.31184 0,0.26404 0.92206,0.48009 2.049024,0.48009 1.126962,0 5.048305,-5.38167 8.714094,-11.95929 9.651559,-17.31802 8.864914,-16.74303 22.905668,-16.74303 11.897772,0 12.038116,0.0406 16.709375,4.82324 8.175454,8.37052 8.198667,20.52907 0.05424,28.39356 -5.911089,5.70788 -13.22049,7.78652 -27.380817,7.78652 l -11.298145,0 -2.600469,5.56858 c -1.743326,3.7331 -4.314248,6.41282 -7.799877,8.12992 l -5.199408,2.56136 -1.793601,-3.23617 z M 67.625865,34.77532 c 2.176926,-1.47236 3.145818,-3.5256 3.145818,-6.66653 0,-5.77219 -2.680798,-7.89587 -9.282787,-7.35362 -4.727447,0.38827 -5.627492,1.1427 -9.299093,7.79458 -2.235785,4.05059 -4.065061,7.58713 -4.065061,7.85898 0,1.60737 16.788676,0.20115 19.501134,-1.63341 z"
     style="fill:#4a84b5" />
</svg>
