<svg xmlns="http://www.w3.org/2000/svg" viewBox="0 0 84.833944 65.463843" height="69.828" width="90.49"><path d="M22.669 62.228c-1.376-2.483-1.423-4.264-.2-7.65.876-2.429 1.593-4.63 1.593-4.895 0-.263-3.516-.479-7.813-.479H8.435l2.888-5.467 2.889-5.467H0V27.336h9.735c6.926 0 10.243-.592 11.497-2.05 1.538-1.79.468-2.05-8.438-2.05-5.61 0-9.966-.462-9.682-1.026 4.476-8.87 3.687-8.41 15.121-8.83 8.921-.328 10.833-.803 11.226-2.787.411-2.082-.734-2.392-8.831-2.392-5.118 0-9.305-.279-9.305-.62 0-.34.74-2.185 1.643-4.1C14.545.136 15.094 0 27.02 0c12.74 0 16.86 1.536 16.86 6.287 0 1.096-3.504 8.217-7.785 15.824-4.282 7.607-7.785 14.048-7.785 14.312 0 .264.922.48 2.049.48 1.127 0 5.048-5.382 8.714-11.96 9.65-17.316 8.864-16.741 22.904-16.741 11.898 0 12.039.04 16.71 4.823 8.175 8.37 8.199 20.529.054 28.393-5.911 5.708-13.22 7.787-27.38 7.787h-11.3l-2.6 5.569c-1.744 3.733-4.315 6.412-7.8 8.13l-5.2 2.56-1.793-3.235zm44.957-27.453c2.177-1.472 3.146-3.525 3.146-6.666 0-5.772-2.681-7.896-9.283-7.354-4.728.388-5.628 1.143-9.3 7.795-2.235 4.05-4.064 7.587-4.064 7.859 0 1.607 16.788.2 19.5-1.634z" fill="#4a84b5"/></svg>